<svg width="128" height="128" viewBox="0 0 128 128" fill="none" xmlns="http://www.w3.org/2000/svg">
<path d="M35.1979 60.7861C35.1979 46.2463 35.1979 38.9765 39.6968 34.4596C44.1956 29.9427 51.4364 29.9427 65.9179 29.9427H81.2779C95.7595 29.9427 103 29.9427 107.499 34.4596C111.998 38.9765 111.998 46.2464 111.998 60.7861V86.4891C111.998 101.029 111.998 108.299 107.499 112.815C103 117.332 95.7595 117.332 81.2779 117.332H65.9179C51.4364 117.332 44.1956 117.332 39.6968 112.815C35.1979 108.299 35.1979 101.029 35.1979 86.4891V60.7861Z" fill="white"/>
<path opacity="0.5" d="M22.2484 16.915C16 23.1635 16 33.2201 16 53.3333V64C16 84.1131 16 94.1701 22.2484 100.418C25.542 103.712 29.8939 105.269 36.2189 106.006C35.1979 101.522 35.1979 95.3579 35.1979 86.4891V60.7861C35.1979 46.2464 35.1979 38.9765 39.6967 34.4596C44.1956 29.9427 51.4364 29.9427 65.9179 29.9427H81.2779C90.088 29.9427 96.2181 29.9427 100.681 30.9597C99.9483 24.5945 98.3915 20.2216 95.0848 16.915C88.8368 10.6667 78.7797 10.6667 58.6667 10.6667C38.5534 10.6667 28.4968 10.6667 22.2484 16.915Z" fill="white"/>
</svg>
