<svg width="128" height="128" viewBox="0 0 128 128" fill="none" xmlns="http://www.w3.org/2000/svg">
<path d="M16 34.0585C16 31.4748 17.842 29.3802 20.1143 29.3802L34.3236 29.3777C37.1468 29.2963 39.6374 27.2551 40.5981 24.2353C40.6234 24.1559 40.6524 24.058 40.7565 23.7026L41.3688 21.6137C41.7435 20.3329 42.0699 19.217 42.5267 18.2196C44.3311 14.2793 47.6698 11.543 51.5278 10.8425C52.5044 10.6652 53.5387 10.6659 54.7259 10.6668H73.2752C74.4624 10.6659 75.4965 10.6652 76.4731 10.8425C80.3312 11.543 83.6699 14.2793 85.4741 18.2196C85.9312 19.217 86.2576 20.3329 86.632 21.6137L87.2443 23.7026C87.3483 24.058 87.3776 24.1559 87.4027 24.2353C88.3637 27.2551 91.3483 29.2988 94.1712 29.3802H107.886C110.158 29.3802 112 31.4748 112 34.0585C112 36.6423 110.158 38.7369 107.886 38.7369H20.1143C17.842 38.7369 16 36.6423 16 34.0585Z" fill="white"/>
<path fill-rule="evenodd" clip-rule="evenodd" d="M61.8432 117.334H66.1568C80.9979 117.334 88.4187 117.334 93.2432 112.609C98.0683 107.884 98.5616 100.134 99.5488 84.6325L100.971 62.2971C101.507 53.8864 101.775 49.6813 99.3542 47.0164C96.9339 44.3516 92.8464 44.3516 84.672 44.3516H43.3282C35.1535 44.3516 31.066 44.3516 28.6456 47.0164C26.2252 49.6813 26.493 53.8864 27.0287 62.2971L28.4512 84.6325C29.4384 100.134 29.932 107.884 34.7568 112.609C39.5815 117.334 47.0021 117.334 61.8432 117.334ZM54.6469 65.0059C54.4272 62.6923 52.4668 61.0037 50.2687 61.2352C48.0705 61.4667 46.4667 63.5301 46.6865 65.8437L49.3532 93.9141C49.573 96.2277 51.5332 97.9163 53.7312 97.6848C55.9296 97.4533 57.5333 95.3899 57.3136 93.0763L54.6469 65.0059ZM77.7312 61.2352C79.9296 61.4667 81.5333 63.5301 81.3136 65.8437L78.6469 93.9141C78.4272 96.2277 76.4667 97.9163 74.2688 97.6848C72.0704 97.4533 70.4667 95.3899 70.6864 93.0763L73.3531 65.0059C73.5728 62.6923 75.5334 61.0037 77.7312 61.2352Z" fill="white"/>
</svg>
