<svg width="128" height="128" viewBox="0 0 128 128" fill="none" xmlns="http://www.w3.org/2000/svg">
<path d="M116.208 7.89334L119.355 11.04C123.691 15.3813 123.035 23.0773 117.877 28.2293L52.9867 93.12L31.9627 100.811C29.3227 101.781 26.752 100.523 26.2293 98.0107C26.0527 97.0994 26.1359 96.1569 26.4693 95.2907L34.3093 74.0853L99.0187 9.37067C104.176 4.21867 111.872 3.552 116.208 7.89334ZM50.1547 14.3467C50.8551 14.3467 51.5486 14.4846 52.1956 14.7526C52.8427 15.0207 53.4307 15.4135 53.9259 15.9088C54.4212 16.404 54.814 16.992 55.082 17.639C55.3501 18.2861 55.488 18.9796 55.488 19.68C55.488 20.3804 55.3501 21.0739 55.082 21.721C54.814 22.368 54.4212 22.956 53.9259 23.4512C53.4307 23.9465 52.8427 24.3393 52.1956 24.6074C51.5486 24.8754 50.8551 25.0133 50.1547 25.0133H28.8213C25.9924 25.0133 23.2793 26.1371 21.2789 28.1375C19.2785 30.1379 18.1547 32.851 18.1547 35.68V99.68C18.1547 102.509 19.2785 105.222 21.2789 107.222C23.2793 109.223 25.9924 110.347 28.8213 110.347H92.8213C95.6503 110.347 98.3634 109.223 100.364 107.222C102.364 105.222 103.488 102.509 103.488 99.68V78.3467C103.488 76.9322 104.05 75.5756 105.05 74.5754C106.05 73.5752 107.407 73.0133 108.821 73.0133C110.236 73.0133 111.592 73.5752 112.593 74.5754C113.593 75.5756 114.155 76.9322 114.155 78.3467V99.68C114.155 105.338 111.907 110.764 107.906 114.765C103.906 118.766 98.4793 121.013 92.8213 121.013H28.8213C23.1634 121.013 17.7372 118.766 13.7364 114.765C9.73562 110.764 7.48801 105.338 7.48801 99.68V35.68C7.48801 30.022 9.73562 24.5958 13.7364 20.5951C17.7372 16.5943 23.1634 14.3467 28.8213 14.3467H50.1547Z" fill="white"/>
</svg>
