<svg width="128" height="128" viewBox="0 0 128 128" fill="none" xmlns="http://www.w3.org/2000/svg">
<path d="M52 64C52 57.3728 57.3728 52 64 52C70.6272 52 76 57.3728 76 64C76 70.6272 70.6272 76 64 76C57.3728 76 52 70.6272 52 64Z" fill="white"/>
<path fill-rule="evenodd" clip-rule="evenodd" d="M10.6667 64C10.6667 72.7435 12.9331 75.688 17.4661 81.5771C26.5171 93.3355 41.6966 106.667 64 106.667C86.3035 106.667 101.483 93.3355 110.534 81.5771C115.067 75.688 117.333 72.7435 117.333 64C117.333 55.2565 115.067 52.3122 110.534 46.4231C101.483 34.6643 86.3035 21.3333 64 21.3333C41.6966 21.3333 26.5171 34.6643 17.4661 46.4231C12.9331 52.3122 10.6667 55.2565 10.6667 64ZM64 44C52.9543 44 44 52.9543 44 64C44 75.0459 52.9543 84 64 84C75.0459 84 84 75.0459 84 64C84 52.9543 75.0459 44 64 44Z" fill="white"/>
</svg>
